<svg width="28" height="28" viewBox="0 0 28 28" fill="none" xmlns="http://www.w3.org/2000/svg">
<path d="M13.9285 1.74109C7.19814 1.74109 1.74097 7.33972 1.74097 14.2387C1.74097 19.7612 5.23399 24.4403 10.0763 26.0943C10.1443 26.1091 10.2136 26.1164 10.2831 26.1161C10.7347 26.1161 10.9088 25.7842 10.9088 25.4958C10.9088 25.1966 10.8979 24.4131 10.8925 23.3685C10.4893 23.463 10.0769 23.5122 9.66284 23.5154C7.31784 23.5154 6.78463 21.6927 6.78463 21.6927C6.22967 20.2509 5.42986 19.8646 5.42986 19.8646C4.3689 19.1192 5.42442 19.0974 5.50603 19.0974H5.51147C6.73567 19.2062 7.37769 20.3923 7.37769 20.3923C7.98706 21.4587 8.80319 21.758 9.53226 21.758C10.0143 21.7483 10.489 21.6371 10.9251 21.4315C11.0339 20.6263 11.3495 20.0767 11.6977 19.7612C8.99362 19.4456 6.14805 18.3738 6.14805 13.5858C6.14805 12.2202 6.62141 11.1048 7.39945 10.2343C7.27431 9.91868 6.85536 8.64552 7.51915 6.92622C7.60818 6.90491 7.6997 6.89576 7.79119 6.89901C8.2319 6.89901 9.22757 7.06768 10.8707 8.21026C12.8673 7.65165 14.9788 7.65165 16.9753 8.21026C18.6185 7.06768 19.6142 6.89901 20.0549 6.89901C20.1464 6.89576 20.2379 6.90491 20.3269 6.92622C20.9907 8.64552 20.5717 9.91868 20.4466 10.2343C21.2246 11.1102 21.698 12.2256 21.698 13.5858C21.698 18.3846 18.847 19.4402 16.132 19.7503C16.5673 20.1366 16.959 20.8983 16.959 22.0627C16.959 23.733 16.9427 25.0823 16.9427 25.4904C16.9427 25.7842 17.1114 26.1161 17.563 26.1161C17.6361 26.1164 17.709 26.1091 17.7806 26.0943C22.6284 24.4403 26.116 19.7557 26.116 14.2387C26.116 7.33972 20.6588 1.74109 13.9285 1.74109Z" fill="#AD974F"/>
</svg>
